<svg width="527" height="123" viewBox="0 0 527 123" fill="none" xmlns="http://www.w3.org/2000/svg">
  <g clip-path="url(#clip0_398_296)">
    <path d="M84 73l1 7-1 5v4l-2 4-3 7-3 4-1 3-9 6-3 2-3 2-10 2-5 1-4 1H31l-19-5-9-3-3-7 1-3v-9l1-4 1-4v-5l4-1 5 2h3l8 2 9 2h9l3-2 4-3 1-3-3-2-4-1-3-1-4-1H22l-7-4-3-2-5-6-3-4-2-7-1-5v-9l1-4v-4l3-7 4-5 3-2 5-5 4-3 4-2 8-3h5l4-1 16 1 10 1 7 2 3 7 1 3-2 4v4l-1 4v9l-4 3-5-1-7-2-4-1-5 1h-7l-4 1-1 2-3 1-1 3 4 3 3 1 5 1h15l3 2 8 3 7 7 1 3 3 7v4zm80-65l3 6v4l-1 4v13l-2 5-3 3h-9l-5 1-8 1-7 7-5 7v12l3 6 4 5 7 3 7-1 7-1 5-2 6-2 4 3v3l-1 4-1 5v17l-3 6-7 2-9 3-7 1-7-1h-6l-3-2h-5l-7-4-3-2-3-3-4-2-6-5-1-4-3-4-1-3-3-8-2-4 1-4-1-5-1-8 2-4v-9l1-4 2-8 2-4 4-4 1-4 6-6 4-4 3-3 4-2 9-3 4-2 4-1h3l12-1 4 1 7 1 5 1zm105 30l1 8-1 4-2 8-4 10-6 5-4 3v6l1 4 3 3 2 4 1 4 3 3 2 5 3 3-2 4-4 2-4 1h-5l-4 1h-4l-3 1-4 1-7-3-1-4-1-5-2-4-1-5-1-4-3-4-6-4-6 5 1 3-1 4 1 5-1 5-1 3v4l-3 5-5-1-6 1h-2l-6-1h-3l-6 1-3-4v-15l1-4-1-5-1-5 1-9v-4l1-4-1-5 1-6v-4l-1-4 1-10v-9l1-8V12l3-5 4-1 8-2h3l8-2h4l8-1 3 1 9-1 4 1 4 1 9 3 3 1 4 2 8 5 2 3 3 4 4 7 1 5v5zm-35 10v-7l-3-5-3-5-5-2h-6l-2 1-1 4-1 5v4l-2 4 1 4v10l5-2h7l7-5 3-6zm141 5l-1 10v4l-1 10-2 4-4 8-4 3-5 7-4 3-7 5-5 2-8 2-5 1-9-1h-4l-10-2-4-2-7-4-3-3-7-6-4-4-4-7v-5l-3-9-1-4V51l2-9 3-5 3-7 4-4 6-6 2-3 9-5 4-2 9-3h4l9-1 4 1 5 1 3 1 8 3 5 1 2 2 3 2 6 7 3 3 1 3 2 3 4 8v4l1 5v3zm-36 11v-7l-1-6-4-5-6-3-7-1-6 2-5 6-1 5-1 7 1 7 4 6 7 3h7l7-3 3-5 2-6zm109 14l4 3-2 5 1 5-1 4 1 5-1 4v5l-5 5h-6l-2 1-5-1-5 1h-13l-3 1-6 1-2-1-5 1h-14l-4-3 1-4 1-4-1-5v-8l1-5v-4l-1-5 1-3V63l-1-4 2-5-1-4v-4l1-4V32l1-4-2-4 1-4 1-4-2-4 1-5 4-5 5 1h26l2-1 5 5-1 4v5l-1 4 1 5-1 4v9l-1 5v8l-1 4v5l-1 4v4l-1 4 5 5h20l4 1zm74-1l4 4 1 5-1 5-1 5-1 4 1 4v4l-5 5-4 1h-13l-5 1-5 1h-12l-5 1h-7l-5 1h-5l-3-4-1-4 1-4-1-4v-5l1-4V80l1-4-1-4v-5l1-4v-5l-1-4 1-4V12l1-5 4-4h10l7-1 5 1h12l3 4 1 5-2 5 1 4-1 4 1 4-2 5v8l-1 5v17l-1 4v4l3 6 5-1 3 1h4l4-1h8z" fill="#000"/>
  </g>
  <defs>
    <clipPath id="clip0_398_296">
      <path fill="#fff" d="M0 0h527v123H0z"/>
    </clipPath>
  </defs>
</svg>